<svg xmlns="http://www.w3.org/2000/svg" viewBox="0 0 32 32">
  <defs>
    <linearGradient id="grad" x1="0%" y1="0%" x2="100%" y2="100%">
      <stop offset="0%" style="stop-color:#2563eb"/>
      <stop offset="100%" style="stop-color:#9333ea"/>
    </linearGradient>
  </defs>
  <rect width="32" height="32" rx="6" fill="url(#grad)"/>
  <path d="M16 6c-4.4 0-8 3.6-8 8 0 2.2.9 4.2 2.3 5.7-.1.4-.3 1.1-.3 1.8 0 1.4.6 2.5.6 2.5s.5-1 1.4-1.7c1.2.7 2.6 1.2 4 1.2s2.8-.5 4-1.2c.9.7 1.4 1.7 1.4 1.7s.6-1.1.6-2.5c0-.7-.2-1.4-.3-1.8 1.4-1.5 2.3-3.5 2.3-5.7 0-4.4-3.6-8-8-8zm-3 10c-.8 0-1.5-.7-1.5-1.5s.7-1.5 1.5-1.5 1.5.7 1.5 1.5-.7 1.5-1.5 1.5zm6 0c-.8 0-1.5-.7-1.5-1.5s.7-1.5 1.5-1.5 1.5.7 1.5 1.5-.7 1.5-1.5 1.5z" fill="white"/>
</svg>
